<svg xmlns="http://www.w3.org/2000/svg" xmlns:xlink="http://www.w3.org/1999/xlink" contentStyleType="text/css" data-diagram-type="DESCRIPTION" height="147px" preserveAspectRatio="none" style="width:310px;height:147px;background:#FFFFFF;" version="1.1" viewBox="0 0 310 147" width="310px" zoomAndPan="magnify"><title>A</title><defs/><g><g class="title" data-source-line="1"><text fill="#000000" font-family="sans-serif" font-size="14" font-weight="bold" lengthAdjust="spacing" textLength="10.835" x="142.5898" y="22.9951">A</text></g><!--entity A--><g class="entity" data-entity="A" data-source-line="4" data-uid="ent0002" id="entity_A"><rect fill="#F1F1F1" height="36.2969" rx="2.5" ry="2.5" style="stroke:#181818;stroke-width:0.5;" width="29.5771" x="7" y="104.7969"/><text fill="#000000" font-family="sans-serif" font-size="14" lengthAdjust="spacing" textLength="9.5771" x="17" y="127.792">A</text></g><!--entity F--><g class="entity" data-entity="F" data-source-line="4" data-uid="ent0003" id="entity_F"><rect fill="#F1F1F1" height="36.2969" rx="2.5" ry="2.5" style="stroke:#181818;stroke-width:0.5;" width="28.0527" x="96.58" y="68.7969"/><text fill="#000000" font-family="sans-serif" font-size="14" lengthAdjust="spacing" textLength="8.0527" x="106.58" y="91.792">F</text></g><!--entity B--><g class="entity" data-entity="B" data-source-line="5" data-uid="ent0005" id="entity_B"><rect fill="#F1F1F1" height="36.2969" rx="2.5" ry="2.5" style="stroke:#181818;stroke-width:0.5;" width="29.6045" x="274.41" y="68.7969"/><text fill="#000000" font-family="sans-serif" font-size="14" lengthAdjust="spacing" textLength="9.6045" x="284.41" y="91.792">B</text></g><!--entity C--><g class="entity" data-entity="C" data-source-line="6" data-uid="ent0007" id="entity_C"><rect fill="#F1F1F1" height="36.2969" rx="2.5" ry="2.5" style="stroke:#181818;stroke-width:0.5;" width="29.7754" x="184.63" y="68.7969"/><text fill="#000000" font-family="sans-serif" font-size="14" lengthAdjust="spacing" textLength="9.7754" x="194.63" y="91.792">C</text></g><!--link A to F--><g class="link" data-entity-1="A" data-entity-2="F" data-source-line="4" data-uid="lnk4" id="link_A_F"><path d="M36.74,117.1669 C53.13,110.3669 74.5878,101.4655 90.7178,94.7755" fill="none" id="A-to-F" style="stroke:#181818;stroke-width:1;"/><polygon fill="#181818" points="96.26,92.4769,86.4142,92.2301,91.6415,94.3924,89.4791,99.6197,96.26,92.4769" style="stroke:#181818;stroke-width:1;"/></g><!--link F to B--><g class="link" data-entity-1="F" data-entity-2="B" data-source-line="5" data-uid="lnk6" id="link_F_B"><path d="M124.89,78.0569 C139.01,69.1869 162.33,56.1469 184.63,50.9469 C217.45,43.2969 249.4124,60.1017 269.0924,73.2617" fill="none" id="F-to-B" style="stroke:#181818;stroke-width:1;"/><polygon fill="#181818" points="274.08,76.5969,268.8221,68.269,269.9237,73.8175,264.3751,74.9191,274.08,76.5969" style="stroke:#181818;stroke-width:1;"/></g><!--link F to C--><g class="link" data-entity-1="F" data-entity-2="C" data-source-line="6" data-uid="lnk8" id="link_F_C"><path d="M124.8,86.9469 C140.85,86.9469 161.84,86.9469 178.33,86.9469" fill="none" id="F-to-C" style="stroke:#181818;stroke-width:1;"/><polygon fill="#181818" points="184.33,86.9469,175.33,82.9469,179.33,86.9469,175.33,90.9469,184.33,86.9469" style="stroke:#181818;stroke-width:1;"/></g><!--link B to A--><g class="link" data-entity-1="B" data-entity-2="A" data-source-line="7" data-uid="lnk9" id="link_B_A"><path d="M273.96,96.3369 C259.61,105.1969 236.49,117.8469 214.41,122.9469 C149.58,137.9169 75.0345,130.3114 42.9245,125.9114" fill="none" id="B-to-A" style="stroke:#181818;stroke-width:1;"/><polygon fill="#181818" points="36.98,125.0969,45.3536,130.2817,41.9337,125.7757,46.4397,122.3558,36.98,125.0969" style="stroke:#181818;stroke-width:1;"/></g><!--link C to B--><g class="link" data-entity-1="C" data-entity-2="B" data-source-line="8" data-uid="lnk10" id="link_C_B"><path d="M214.61,86.9469 C230.97,86.9469 251.8,86.9469 268.15,86.9469" fill="none" id="C-to-B" style="stroke:#181818;stroke-width:1;"/><polygon fill="#181818" points="274.15,86.9469,265.15,82.9469,269.15,86.9469,265.15,90.9469,274.15,86.9469" style="stroke:#181818;stroke-width:1;"/></g><!--SRC=[AyaioKbLSEJAIKqhKIZ9LoZAJCyeKKZ9B4fDBidCp-CgpixCAqWiIinLICxFBSZFIyqh2Iwf16e1AKZCIyz9vOfsZ5NGrRLJY7QBvG9Y2Di9YUqCP3j1sOv0jZDS3G00]--></g></svg>