<svg xmlns="http://www.w3.org/2000/svg" xmlns:xlink="http://www.w3.org/1999/xlink" contentStyleType="text/css" data-diagram-type="DESCRIPTION" height="193px" preserveAspectRatio="none" style="width:398px;height:193px;background:#FFFFFF;" version="1.1" viewBox="0 0 398 193" width="398px" zoomAndPan="magnify"><title>A</title><defs/><g><g class="title" data-source-line="1"><text fill="#000000" font-family="sans-serif" font-size="14" font-weight="bold" lengthAdjust="spacing" textLength="10.835" x="186.8087" y="22.9951">A</text></g><!--entity A--><g class="entity" data-entity="A" data-source-line="4" data-uid="ent0002" id="entity_A"><rect fill="#F1F1F1" height="36.2969" rx="2.5" ry="2.5" style="stroke:#181818;stroke-width:0.5;" width="29.5771" x="7" y="151.2969"/><text fill="#000000" font-family="sans-serif" font-size="14" lengthAdjust="spacing" textLength="9.5771" x="17" y="174.292">A</text></g><!--entity B--><g class="entity" data-entity="B" data-source-line="4" data-uid="ent0003" id="entity_B"><rect fill="#F1F1F1" height="36.2969" rx="2.5" ry="2.5" style="stroke:#181818;stroke-width:0.5;" width="29.6045" x="96.58" y="115.2969"/><text fill="#000000" font-family="sans-serif" font-size="14" lengthAdjust="spacing" textLength="9.6045" x="106.58" y="138.292">B</text></g><!--entity C--><g class="entity" data-entity="C" data-source-line="5" data-uid="ent0005" id="entity_C"><rect fill="#F1F1F1" height="36.2969" rx="2.5" ry="2.5" style="stroke:#181818;stroke-width:0.5;" width="29.7754" x="186.18" y="44.2969"/><text fill="#000000" font-family="sans-serif" font-size="14" lengthAdjust="spacing" textLength="9.7754" x="196.18" y="67.292">C</text></g><!--entity F--><g class="entity" data-entity="F" data-source-line="6" data-uid="ent0007" id="entity_F"><rect fill="#F1F1F1" height="36.2969" rx="2.5" ry="2.5" style="stroke:#181818;stroke-width:0.5;" width="28.0527" x="275.96" y="115.2969"/><text fill="#000000" font-family="sans-serif" font-size="14" lengthAdjust="spacing" textLength="8.0527" x="285.96" y="138.292">F</text></g><!--entity P--><g class="entity" data-entity="P" data-source-line="8" data-uid="ent0010" id="entity_P"><rect fill="#F1F1F1" height="36.2969" rx="2.5" ry="2.5" style="stroke:#181818;stroke-width:0.5;" width="28.4424" x="364.01" y="115.2969"/><text fill="#000000" font-family="sans-serif" font-size="14" lengthAdjust="spacing" textLength="8.4424" x="374.01" y="138.292">P</text></g><!--link A to B--><g class="link" data-entity-1="A" data-entity-2="B" data-source-line="4" data-uid="lnk4" id="link_A_B"><path d="M36.86,163.6669 C53.21,156.9469 74.4602,148.2073 90.7902,141.4973" fill="none" id="A-to-B" style="stroke:#181818;stroke-width:1;"/><polygon fill="#181818" points="96.34,139.2169,86.4951,138.9376,91.7152,141.1172,89.5356,146.3373,96.34,139.2169" style="stroke:#181818;stroke-width:1;"/></g><!--link B to C--><g class="link" data-entity-1="B" data-entity-2="C" data-source-line="5" data-uid="lnk6" id="link_B_C"><path d="M126.47,122.0369 C142.74,108.8669 164.6863,91.0917 181.0563,77.8417" fill="none" id="B-to-C" style="stroke:#181818;stroke-width:1;"/><polygon fill="#181818" points="185.72,74.0669,176.2078,76.62,181.8336,77.2126,181.241,82.8383,185.72,74.0669" style="stroke:#181818;stroke-width:1;"/></g><!--link B to F--><g class="link" data-entity-1="B" data-entity-2="F" data-source-line="6" data-uid="lnk8" id="link_B_F"><path d="M126.53,133.4469 C159.93,133.4469 237.26,133.4469 269.73,133.4469" fill="none" id="B-to-F" style="stroke:#181818;stroke-width:1;"/><polygon fill="#181818" points="275.73,133.4469,266.73,129.4469,270.73,133.4469,266.73,137.4469,275.73,133.4469" style="stroke:#181818;stroke-width:1;"/></g><!--link F to A--><g class="link" data-entity-1="F" data-entity-2="A" data-source-line="7" data-uid="lnk9" id="link_F_A"><path d="M275.64,137.4369 C248.05,145.4569 182.58,163.2869 126.18,169.4469 C94.42,172.9169 62.8301,171.9122 42.8801,170.7622" fill="none" id="F-to-A" style="stroke:#181818;stroke-width:1;"/><polygon fill="#181818" points="36.89,170.4169,45.6449,174.9282,41.8817,170.7046,46.1053,166.9414,36.89,170.4169" style="stroke:#181818;stroke-width:1;"/></g><!--link F to P--><g class="link" data-entity-1="F" data-entity-2="P" data-source-line="8" data-uid="lnk11" id="link_F_P"><path d="M304.46,133.4469 C320.57,133.4469 341.37,133.4469 357.56,133.4469" fill="none" id="F-to-P" style="stroke:#181818;stroke-width:1;"/><polygon fill="#181818" points="363.56,133.4469,354.56,129.4469,358.56,133.4469,354.56,137.4469,363.56,133.4469" style="stroke:#181818;stroke-width:1;"/></g><!--link C to F--><g class="link" data-entity-1="C" data-entity-2="F" data-source-line="10" data-uid="lnk12" id="link_C_F"><path d="M216.42,74.1769 C232.81,87.5669 254.7829,105.5116 270.8229,118.6116" fill="none" id="C-to-F" style="stroke:#181818;stroke-width:1;"/><polygon fill="#181818" points="275.47,122.4069,271.0296,113.6158,271.5974,119.2441,265.9691,119.812,275.47,122.4069" style="stroke:#181818;stroke-width:1;"/></g><!--SRC=[AyaioKbLSEJAIKqhKIZ9LoZAJCyeKKZ9B4fDBidCp-CgpixCAqWiIinLICxFBSZFIyqh2Iwf16e1AKZCIyz9vOfsZ5NGrRLJY7QAvG9Y2DiPYUq6PBj1sOv8x00W6uITuUe0]--></g></svg>