<svg xmlns="http://www.w3.org/2000/svg" xmlns:xlink="http://www.w3.org/1999/xlink" contentStyleType="text/css" data-diagram-type="DESCRIPTION" height="201px" preserveAspectRatio="none" style="width:400px;height:201px;background:#FFFFFF;" version="1.1" viewBox="0 0 400 201" width="400px" zoomAndPan="magnify"><title>A</title><defs/><g><g class="title" data-source-line="1"><text fill="#000000" font-family="sans-serif" font-size="14" font-weight="bold" lengthAdjust="spacing" textLength="10.835" x="187.9752" y="22.9951">A</text></g><!--entity A--><g class="entity" data-entity="A" data-source-line="4" data-uid="ent0002" id="entity_A"><rect fill="#F1F1F1" height="36.2969" rx="2.5" ry="2.5" style="stroke:#181818;stroke-width:0.5;" width="29.5771" x="7" y="159.2969"/><text fill="#000000" font-family="sans-serif" font-size="14" lengthAdjust="spacing" textLength="9.5771" x="17" y="182.292">A</text></g><!--entity B--><g class="entity" data-entity="B" data-source-line="4" data-uid="ent0003" id="entity_B"><rect fill="#F1F1F1" height="36.2969" rx="2.5" ry="2.5" style="stroke:#181818;stroke-width:0.5;" width="29.6045" x="96.58" y="115.2969"/><text fill="#000000" font-family="sans-serif" font-size="14" lengthAdjust="spacing" textLength="9.6045" x="106.58" y="138.292">B</text></g><!--entity C--><g class="entity" data-entity="C" data-source-line="5" data-uid="ent0005" id="entity_C"><rect fill="#F1F1F1" height="36.2969" rx="2.5" ry="2.5" style="stroke:#181818;stroke-width:0.5;" width="29.7754" x="365.01" y="159.2969"/><text fill="#000000" font-family="sans-serif" font-size="14" lengthAdjust="spacing" textLength="9.7754" x="375.01" y="182.292">C</text></g><!--entity D--><g class="entity" data-entity="D" data-source-line="7" data-uid="ent0008" id="entity_D"><rect fill="#F1F1F1" height="36.2969" rx="2.5" ry="2.5" style="stroke:#181818;stroke-width:0.5;" width="30.7803" x="186.18" y="44.2969"/><text fill="#000000" font-family="sans-serif" font-size="14" lengthAdjust="spacing" textLength="10.7803" x="196.18" y="67.292">D</text></g><!--entity E--><g class="entity" data-entity="E" data-source-line="8" data-uid="ent0010" id="entity_E"><rect fill="#F1F1F1" height="36.2969" rx="2.5" ry="2.5" style="stroke:#181818;stroke-width:0.5;" width="28.8457" x="187.15" y="115.2969"/><text fill="#000000" font-family="sans-serif" font-size="14" lengthAdjust="spacing" textLength="8.8457" x="197.15" y="138.292">E</text></g><!--entity F--><g class="entity" data-entity="F" data-source-line="11" data-uid="ent0014" id="entity_F"><rect fill="#F1F1F1" height="36.2969" rx="2.5" ry="2.5" style="stroke:#181818;stroke-width:0.5;" width="28.0527" x="276.96" y="115.2969"/><text fill="#000000" font-family="sans-serif" font-size="14" lengthAdjust="spacing" textLength="8.0527" x="286.96" y="138.292">F</text></g><!--link A to B--><g class="link" data-entity-1="A" data-entity-2="B" data-source-line="4" data-uid="lnk4" id="link_A_B"><path d="M36.86,180.0369 C53.21,175.9469 75.2216,166.1023 91.5516,153.7723" fill="none" id="A-to-B" style="stroke:#181818;stroke-width:1;"/><polygon fill="#181818" points="96.34,150.1569,86.7471,152.3878,92.3497,153.1698,91.5678,158.7723,96.34,150.1569" style="stroke:#181818;stroke-width:1;"/></g><!--link B to A--><g class="link" data-entity-1="B" data-entity-2="A" data-source-line="6" data-uid="lnk7" id="link_B_A"><path d="M96.34,130.2769 C80.01,134.1169 57.9667,143.9199 41.6167,156.4899" fill="none" id="B-to-A" style="stroke:#181818;stroke-width:1;"/><polygon fill="#181818" points="36.86,160.1469,46.4331,157.8325,40.8239,157.0994,41.5571,151.4902,36.86,160.1469" style="stroke:#181818;stroke-width:1;"/></g><!--link A to C--><g class="link" data-entity-1="A" data-entity-2="C" data-source-line="5" data-uid="lnk6" id="link_A_C"><path d="M36.75,182.7969 C93.59,192.6469 301.366,193.6792 358.736,183.8592" fill="none" id="A-to-C" style="stroke:#181818;stroke-width:1;"/><polygon fill="#181818" points="364.65,182.8469,355.1042,180.4227,359.7217,183.6905,356.4539,188.308,364.65,182.8469" style="stroke:#181818;stroke-width:1;"/></g><!--link C to A--><g class="link" data-entity-1="C" data-entity-2="A" data-source-line="14" data-uid="lnk18" id="link_C_A"><path d="M364.65,171.7269 C307.28,161.3369 99.4917,160.275 42.6517,170.695" fill="none" id="C-to-A" style="stroke:#181818;stroke-width:1;"/><polygon fill="#181818" points="36.75,171.7769,46.3237,174.0885,41.668,170.8753,44.8812,166.2196,36.75,171.7769" style="stroke:#181818;stroke-width:1;"/></g><!--link B to D--><g class="link" data-entity-1="B" data-entity-2="D" data-source-line="7" data-uid="lnk9" id="link_B_D"><path d="M126.55,131.7069 C143.79,122.1469 168.5299,103.1928 184.6599,85.4828" fill="none" id="B-to-D" style="stroke:#181818;stroke-width:1;"/><polygon fill="#181818" points="188.7,81.0469,179.6825,85.0073,185.3332,84.7435,185.597,90.3942,188.7,81.0469" style="stroke:#181818;stroke-width:1;"/></g><!--link D to B--><g class="link" data-entity-1="D" data-entity-2="B" data-source-line="9" data-uid="lnk12" id="link_D_B"><path d="M185.98,63.8569 C168.44,73.4569 143.3726,92.6704 127.5226,110.6104" fill="none" id="D-to-B" style="stroke:#181818;stroke-width:1;"/><polygon fill="#181818" points="123.55,115.1069,132.5066,111.0106,126.8605,111.3598,126.5113,105.7138,123.55,115.1069" style="stroke:#181818;stroke-width:1;"/></g><!--link B to E--><g class="link" data-entity-1="B" data-entity-2="E" data-source-line="8" data-uid="lnk11" id="link_B_E"><path d="M126.55,143.1069 C143.1,147.2569 164.4971,148.7137 180.9171,144.5137" fill="none" id="B-to-E" style="stroke:#181818;stroke-width:1;"/><polygon fill="#181818" points="186.73,143.0269,177.0195,141.3819,181.886,144.2659,179.0019,149.1324,186.73,143.0269" style="stroke:#181818;stroke-width:1;"/></g><!--link E to B--><g class="link" data-entity-1="E" data-entity-2="B" data-source-line="10" data-uid="lnk13" id="link_E_B"><path d="M186.73,123.3069 C170.31,118.8569 148.8994,117.2885 132.3494,121.6785" fill="none" id="E-to-B" style="stroke:#181818;stroke-width:1;"/><polygon fill="#181818" points="126.55,123.2169,136.2747,124.7757,131.3829,121.9349,134.2236,117.0431,126.55,123.2169" style="stroke:#181818;stroke-width:1;"/></g><!--link E to F--><g class="link" data-entity-1="E" data-entity-2="F" data-source-line="11" data-uid="lnk15" id="link_E_F"><path d="M216.23,143.0069 C232.75,147.2969 254.5719,148.8004 270.9119,144.4504" fill="none" id="E-to-F" style="stroke:#181818;stroke-width:1;"/><polygon fill="#181818" points="276.71,142.9069,266.9839,141.3568,271.8783,144.1932,269.0419,149.0876,276.71,142.9069" style="stroke:#181818;stroke-width:1;"/></g><!--link F to E--><g class="link" data-entity-1="F" data-entity-2="E" data-source-line="13" data-uid="lnk17" id="link_F_E"><path d="M276.71,123.4269 C260.37,118.8269 238.5355,117.1969 222.0155,121.7369" fill="none" id="F-to-E" style="stroke:#181818;stroke-width:1;"/><polygon fill="#181818" points="216.23,123.3269,225.9682,124.7989,221.0513,122.0019,223.8483,117.0849,216.23,123.3269" style="stroke:#181818;stroke-width:1;"/></g><!--link F to C--><g class="link" data-entity-1="F" data-entity-2="C" data-source-line="12" data-uid="lnk16" id="link_F_C"><path d="M305.19,149.5969 C321.24,162.0169 342.4082,174.266 358.8982,178.496" fill="none" id="F-to-C" style="stroke:#181818;stroke-width:1;"/><polygon fill="#181818" points="364.71,179.9869,356.9862,173.8761,359.8668,178.7445,354.9984,181.6252,364.71,179.9869" style="stroke:#181818;stroke-width:1;"/></g><!--link C to F--><g class="link" data-entity-1="C" data-entity-2="F" data-source-line="15" data-uid="lnk19" id="link_C_F"><path d="M364.71,159.9769 C348.22,147.2569 327.0969,134.9896 311.0469,131.4196" fill="none" id="C-to-F" style="stroke:#181818;stroke-width:1;"/><polygon fill="#181818" points="305.19,130.1169,313.1068,135.9756,310.0707,131.2025,314.8438,128.1664,305.19,130.1169" style="stroke:#181818;stroke-width:1;"/></g><!--SRC=[RSon3OGm38NXFbDu0LOuAGIo02MYYC37MGG71JTiJv0GkBZkAzx_X2GYM1FnAo09Ciq_WOaoZaA9pRuGRo675SQqRecHfPEZ9DSWy1pHz7Q0glf0Nm-lNN5zsoetocrnezhsZtsnLvzUjKxzksT_0W00]--></g></svg>