<svg xmlns="http://www.w3.org/2000/svg" xmlns:xlink="http://www.w3.org/1999/xlink" contentStyleType="text/css" data-diagram-type="DESCRIPTION" height="218px" preserveAspectRatio="none" style="width:400px;height:218px;background:#FFFFFF;" version="1.1" viewBox="0 0 400 218" width="400px" zoomAndPan="magnify"><title>B</title><defs/><g><g class="title" data-source-line="1"><text fill="#000000" font-family="sans-serif" font-size="14" font-weight="bold" lengthAdjust="spacing" textLength="10.6709" x="187.6924" y="22.9951">B</text></g><!--entity B--><g class="entity" data-entity="B" data-source-line="4" data-uid="ent0002" id="entity_B"><rect fill="#F1F1F1" height="36.2969" rx="2.5" ry="2.5" style="stroke:#181818;stroke-width:0.5;" width="29.6045" x="7" y="115.2969"/><text fill="#000000" font-family="sans-serif" font-size="14" lengthAdjust="spacing" textLength="9.6045" x="17" y="138.292">B</text></g><!--entity A--><g class="entity" data-entity="A" data-source-line="4" data-uid="ent0003" id="entity_A"><rect fill="#F1F1F1" height="36.2969" rx="2.5" ry="2.5" style="stroke:#181818;stroke-width:0.5;" width="29.5771" x="97.21" y="44.2969"/><text fill="#000000" font-family="sans-serif" font-size="14" lengthAdjust="spacing" textLength="9.5771" x="107.21" y="67.292">A</text></g><!--entity D--><g class="entity" data-entity="D" data-source-line="5" data-uid="ent0005" id="entity_D"><rect fill="#F1F1F1" height="36.2969" rx="2.5" ry="2.5" style="stroke:#181818;stroke-width:0.5;" width="30.7803" x="96.6" y="115.2969"/><text fill="#000000" font-family="sans-serif" font-size="14" lengthAdjust="spacing" textLength="10.7803" x="106.6" y="138.292">D</text></g><!--entity E--><g class="entity" data-entity="E" data-source-line="6" data-uid="ent0007" id="entity_E"><rect fill="#F1F1F1" height="36.2969" rx="2.5" ry="2.5" style="stroke:#181818;stroke-width:0.5;" width="28.8457" x="365.21" y="159.2969"/><text fill="#000000" font-family="sans-serif" font-size="14" lengthAdjust="spacing" textLength="8.8457" x="375.21" y="182.292">E</text></g><!--entity C--><g class="entity" data-entity="C" data-source-line="9" data-uid="ent0011" id="entity_C"><rect fill="#F1F1F1" height="36.2969" rx="2.5" ry="2.5" style="stroke:#181818;stroke-width:0.5;" width="29.7754" x="187.38" y="62.2969"/><text fill="#000000" font-family="sans-serif" font-size="14" lengthAdjust="spacing" textLength="9.7754" x="197.38" y="85.292">C</text></g><!--entity F--><g class="entity" data-entity="F" data-source-line="11" data-uid="ent0014" id="entity_F"><rect fill="#F1F1F1" height="36.2969" rx="2.5" ry="2.5" style="stroke:#181818;stroke-width:0.5;" width="28.0527" x="277.16" y="80.2969"/><text fill="#000000" font-family="sans-serif" font-size="14" lengthAdjust="spacing" textLength="8.0527" x="287.16" y="103.292">F</text></g><!--link B to A--><g class="link" data-entity-1="B" data-entity-2="A" data-source-line="4" data-uid="lnk4" id="link_B_A"><path d="M36.97,131.6969 C54.21,122.1369 78.9625,103.1952 95.0825,85.4752" fill="none" id="B-to-A" style="stroke:#181818;stroke-width:1;"/><polygon fill="#181818" points="99.12,81.0369,90.1048,85.0026,95.7554,84.7354,96.0226,90.386,99.12,81.0369" style="stroke:#181818;stroke-width:1;"/></g><!--link A to B--><g class="link" data-entity-1="A" data-entity-2="B" data-source-line="8" data-uid="lnk10" id="link_A_B"><path d="M96.71,63.6869 C79.2,73.1669 53.893,92.5608 37.943,110.6108" fill="none" id="A-to-B" style="stroke:#181818;stroke-width:1;"/><polygon fill="#181818" points="33.97,115.1069,42.9269,111.0114,37.2809,111.3601,36.9321,105.714,33.97,115.1069" style="stroke:#181818;stroke-width:1;"/></g><!--link B to D--><g class="link" data-entity-1="B" data-entity-2="D" data-source-line="5" data-uid="lnk6" id="link_B_D"><path d="M36.97,143.1069 C53.23,147.1769 73.9483,148.6379 90.4383,144.6479" fill="none" id="B-to-D" style="stroke:#181818;stroke-width:1;"/><polygon fill="#181818" points="96.27,143.2369,86.5817,141.4657,91.4102,144.4128,88.4631,149.2413,96.27,143.2369" style="stroke:#181818;stroke-width:1;"/></g><!--link D to B--><g class="link" data-entity-1="D" data-entity-2="B" data-source-line="7" data-uid="lnk9" id="link_D_B"><path d="M96.27,123.0669 C79.78,118.8569 59.0297,117.3696 42.7697,121.6796" fill="none" id="D-to-B" style="stroke:#181818;stroke-width:1;"/><polygon fill="#181818" points="36.97,123.2169,46.6944,124.7774,41.8031,121.9358,44.6447,117.0444,36.97,123.2169" style="stroke:#181818;stroke-width:1;"/></g><!--link B to E--><g class="link" data-entity-1="B" data-entity-2="E" data-source-line="6" data-uid="lnk8" id="link_B_E"><path d="M33.25,151.9969 C47.08,166.0169 72.52,180.5169 96.6,186.4469 C196.97,211.1169 317.7965,202.4798 359.1765,188.4798" fill="none" id="B-to-E" style="stroke:#181818;stroke-width:1;"/><polygon fill="#181818" points="364.86,186.5569,355.0528,185.6522,360.1237,188.1593,357.6166,193.2302,364.86,186.5569" style="stroke:#181818;stroke-width:1;"/></g><!--link E to B--><g class="link" data-entity-1="E" data-entity-2="B" data-source-line="14" data-uid="lnk18" id="link_E_B"><path d="M364.86,171.1569 C323.48,165.5569 196.97,176.1169 96.6,151.4469 C74.59,146.0269 57.1826,135.2281 42.8126,130.7881" fill="none" id="E-to-B" style="stroke:#181818;stroke-width:1;"/><polygon fill="#181818" points="37.08,129.0169,44.4981,135.4955,41.8572,130.4929,46.8597,127.852,37.08,129.0169" style="stroke:#181818;stroke-width:1;"/></g><!--link A to C--><g class="link" data-entity-1="A" data-entity-2="C" data-source-line="9" data-uid="lnk12" id="link_A_C"><path d="M127.18,74.9969 C143.65,82.4769 164.6767,88.2711 181.1267,87.4911" fill="none" id="A-to-C" style="stroke:#181818;stroke-width:1;"/><polygon fill="#181818" points="187.12,87.2069,177.9406,83.6376,182.1256,87.4437,178.3196,91.6287,187.12,87.2069" style="stroke:#181818;stroke-width:1;"/></g><!--link C to A--><g class="link" data-entity-1="C" data-entity-2="A" data-source-line="10" data-uid="lnk13" id="link_C_A"><path d="M187.12,67.3369 C170.67,59.6169 149.6387,53.7296 133.1687,54.7396" fill="none" id="C-to-A" style="stroke:#181818;stroke-width:1;"/><polygon fill="#181818" points="127.18,55.1069,136.408,58.5485,132.1706,54.8008,135.9183,50.5635,127.18,55.1069" style="stroke:#181818;stroke-width:1;"/></g><!--link C to F--><g class="link" data-entity-1="C" data-entity-2="F" data-source-line="11" data-uid="lnk15" id="link_C_F"><path d="M217.62,93.1769 C234.02,100.6269 254.649,106.3958 270.679,105.5158" fill="none" id="C-to-F" style="stroke:#181818;stroke-width:1;"/><polygon fill="#181818" points="276.67,105.1869,267.4643,101.6862,271.6775,105.4609,267.9028,109.6742,276.67,105.1869" style="stroke:#181818;stroke-width:1;"/></g><!--link F to C--><g class="link" data-entity-1="F" data-entity-2="C" data-source-line="12" data-uid="lnk16" id="link_F_C"><path d="M276.67,85.5369 C260.64,77.7669 240.0108,71.8445 223.6108,72.7545" fill="none" id="F-to-C" style="stroke:#181818;stroke-width:1;"/><polygon fill="#181818" points="217.62,73.0869,226.8278,76.5821,222.6123,72.8099,226.3846,68.5944,217.62,73.0869" style="stroke:#181818;stroke-width:1;"/></g><!--link F to E--><g class="link" data-entity-1="F" data-entity-2="E" data-source-line="13" data-uid="lnk17" id="link_F_E"><path d="M302.79,116.8469 C318.39,136.1469 342.5246,159.8136 359.7946,171.1536" fill="none" id="F-to-E" style="stroke:#181818;stroke-width:1;"/><polygon fill="#181818" points="364.81,174.4469,359.4824,166.1634,360.6305,171.7025,355.0914,172.8506,364.81,174.4469" style="stroke:#181818;stroke-width:1;"/></g><!--link E to F--><g class="link" data-entity-1="E" data-entity-2="F" data-source-line="15" data-uid="lnk19" id="link_E_F"><path d="M368.46,159.0669 C352.88,139.3069 328.1333,114.9361 310.7533,103.8861" fill="none" id="E-to-F" style="stroke:#181818;stroke-width:1;"/><polygon fill="#181818" points="305.69,100.6669,311.1388,108.8712,309.9094,103.3495,315.4311,102.1201,305.69,100.6669" style="stroke:#181818;stroke-width:1;"/></g><!--SRC=[RSmz3eCm38RXFQVm1RX29GB91HWHGqHTQX4S5BnmUrofFnwwFSFxVKAI4RpB-12G0fMMfy2TAiv2XTsn4k-ffWtciks5aMMGKoUl8F6IqOr-WgQvmTXEF_V6GTs_xTNj7tVgplny7DNHDD5y1lCJllq5]--></g></svg>