<svg xmlns="http://www.w3.org/2000/svg" xmlns:xlink="http://www.w3.org/1999/xlink" contentStyleType="text/css" data-diagram-type="DESCRIPTION" height="228px" preserveAspectRatio="none" style="width:310px;height:228px;background:#FFFFFF;" version="1.1" viewBox="0 0 310 228" width="310px" zoomAndPan="magnify"><title>B</title><defs/><g><g class="title" data-source-line="1"><text fill="#000000" font-family="sans-serif" font-size="14" font-weight="bold" lengthAdjust="spacing" textLength="10.6709" x="142.6681" y="22.9951">B</text></g><!--entity B--><g class="entity" data-entity="B" data-source-line="4" data-uid="ent0002" id="entity_B"><rect fill="#F1F1F1" height="36.2969" rx="2.5" ry="2.5" style="stroke:#181818;stroke-width:0.5;" width="29.6045" x="7" y="115.2969"/><text fill="#000000" font-family="sans-serif" font-size="14" lengthAdjust="spacing" textLength="9.6045" x="17" y="138.292">B</text></g><!--entity C--><g class="entity" data-entity="C" data-source-line="4" data-uid="ent0003" id="entity_C"><rect fill="#F1F1F1" height="36.2969" rx="2.5" ry="2.5" style="stroke:#181818;stroke-width:0.5;" width="29.7754" x="96.6" y="44.2969"/><text fill="#000000" font-family="sans-serif" font-size="14" lengthAdjust="spacing" textLength="9.7754" x="106.6" y="67.292">C</text></g><!--entity F--><g class="entity" data-entity="F" data-source-line="5" data-uid="ent0005" id="entity_F"><rect fill="#F1F1F1" height="36.2969" rx="2.5" ry="2.5" style="stroke:#181818;stroke-width:0.5;" width="28.0527" x="186.38" y="115.2969"/><text fill="#000000" font-family="sans-serif" font-size="14" lengthAdjust="spacing" textLength="8.0527" x="196.38" y="138.292">F</text></g><!--entity A--><g class="entity" data-entity="A" data-source-line="6" data-uid="ent0007" id="entity_A"><rect fill="#F1F1F1" height="36.2969" rx="2.5" ry="2.5" style="stroke:#181818;stroke-width:0.5;" width="29.5771" x="274.43" y="186.2969"/><text fill="#000000" font-family="sans-serif" font-size="14" lengthAdjust="spacing" textLength="9.5771" x="284.43" y="209.292">A</text></g><!--entity P--><g class="entity" data-entity="P" data-source-line="7" data-uid="ent0009" id="entity_P"><rect fill="#F1F1F1" height="36.2969" rx="2.5" ry="2.5" style="stroke:#181818;stroke-width:0.5;" width="28.4424" x="275" y="115.2969"/><text fill="#000000" font-family="sans-serif" font-size="14" lengthAdjust="spacing" textLength="8.4424" x="285" y="138.292">P</text></g><!--link B to C--><g class="link" data-entity-1="B" data-entity-2="C" data-source-line="4" data-uid="lnk4" id="link_B_C"><path d="M36.89,122.0369 C53.16,108.8669 75.1051,91.0903 91.4851,77.8403" fill="none" id="B-to-C" style="stroke:#181818;stroke-width:1;"/><polygon fill="#181818" points="96.15,74.0669,86.6371,76.6172,92.2626,77.2114,91.6684,82.837,96.15,74.0669" style="stroke:#181818;stroke-width:1;"/></g><!--link B to F--><g class="link" data-entity-1="B" data-entity-2="F" data-source-line="5" data-uid="lnk6" id="link_B_F"><path d="M36.96,133.4469 C70.35,133.4469 147.68,133.4469 180.15,133.4469" fill="none" id="B-to-F" style="stroke:#181818;stroke-width:1;"/><polygon fill="#181818" points="186.15,133.4469,177.15,129.4469,181.15,133.4469,177.15,137.4469,186.15,133.4469" style="stroke:#181818;stroke-width:1;"/></g><!--link F to A--><g class="link" data-entity-1="F" data-entity-2="A" data-source-line="6" data-uid="lnk8" id="link_F_A"><path d="M214.59,144.2269 C230.62,157.3469 252.9366,175.587 269.3966,189.057" fill="none" id="F-to-A" style="stroke:#181818;stroke-width:1;"/><polygon fill="#181818" points="274.04,192.8569,269.6082,184.0615,270.1705,189.6903,264.5417,190.2526,274.04,192.8569" style="stroke:#181818;stroke-width:1;"/></g><!--link F to P--><g class="link" data-entity-1="F" data-entity-2="P" data-source-line="7" data-uid="lnk10" id="link_F_P"><path d="M214.59,133.4469 C230.81,133.4469 252.22,133.4469 268.63,133.4469" fill="none" id="F-to-P" style="stroke:#181818;stroke-width:1;"/><polygon fill="#181818" points="274.63,133.4469,265.63,129.4469,269.63,133.4469,265.63,137.4469,274.63,133.4469" style="stroke:#181818;stroke-width:1;"/></g><!--link A to B--><g class="link" data-entity-1="A" data-entity-2="B" data-source-line="8" data-uid="lnk11" id="link_A_B"><path d="M274.2,200.6969 C228.37,188.4369 89.0662,151.1775 42.8662,138.8175" fill="none" id="A-to-B" style="stroke:#181818;stroke-width:1;"/><polygon fill="#181818" points="37.07,137.2669,44.7305,143.457,41.9001,138.5591,46.798,135.7288,37.07,137.2669" style="stroke:#181818;stroke-width:1;"/></g><!--link C to F--><g class="link" data-entity-1="C" data-entity-2="F" data-source-line="10" data-uid="lnk12" id="link_C_F"><path d="M126.84,74.1769 C143.24,87.5669 165.2141,105.5101 181.2441,118.6101" fill="none" id="C-to-F" style="stroke:#181818;stroke-width:1;"/><polygon fill="#181818" points="185.89,122.4069,181.4523,113.6145,182.0184,119.2429,176.3899,119.8091,185.89,122.4069" style="stroke:#181818;stroke-width:1;"/></g><!--SRC=[JSin2e0m38NXlQV81Ro2O0LdmL4SIeqQh6cfMRozAOYwVG_UBoG1mPg0Yu14oBHk0ZDbz4AHpRaJ9vVT0JuUAJAo379fKWwEru1cj1DKLGrZEttkrDtZvkTUtJoswhBRjxa1]--></g></svg>