<svg xmlns="http://www.w3.org/2000/svg" xmlns:xlink="http://www.w3.org/1999/xlink" contentStyleType="text/css" data-diagram-type="DESCRIPTION" height="193px" preserveAspectRatio="none" style="width:720px;height:193px;background:#FFFFFF;" version="1.1" viewBox="0 0 720 193" width="720px" zoomAndPan="magnify"><title>jq</title><defs/><g><g class="title" data-source-line="1"><text fill="#000000" font-family="sans-serif" font-size="14" font-weight="bold" lengthAdjust="spacing" textLength="14.8203" x="346.066" y="22.9951">jq</text></g><!--entity jq--><g class="entity" data-entity="jq" data-source-line="4" data-uid="ent0002" id="entity_jq"><rect fill="#F1F1F1" height="36.2969" rx="2.5" ry="2.5" style="stroke:#181818;stroke-width:0.5;" width="32.7764" x="7" y="45.2969"/><text fill="#000000" font-family="sans-serif" font-size="14" lengthAdjust="spacing" textLength="12.7764" x="17" y="68.292">jq</text></g><!--entity libc6--><g class="entity" data-entity="libc6" data-source-line="4" data-uid="ent0003" id="entity_libc6"><rect fill="#F1F1F1" height="36.2969" rx="2.5" ry="2.5" style="stroke:#181818;stroke-width:0.5;" width="53.2705" x="353.91" y="80.2969"/><text fill="#000000" font-family="sans-serif" font-size="14" lengthAdjust="spacing" textLength="33.2705" x="363.91" y="103.292">libc6</text></g><!--entity libjq1--><g class="entity" data-entity="libjq1" data-source-line="5" data-uid="ent0005" id="entity_libjq1"><rect fill="#F1F1F1" height="36.2969" rx="2.5" ry="2.5" style="stroke:#181818;stroke-width:0.5;" width="58.3496" x="99.78" y="80.2969"/><text fill="#000000" font-family="sans-serif" font-size="14" lengthAdjust="spacing" textLength="38.3496" x="109.78" y="103.292">libjq1</text></g><!--entity libonig5--><g class="entity" data-entity="libonig5" data-source-line="7" data-uid="ent0008" id="entity_libonig5"><rect fill="#F1F1F1" height="36.2969" rx="2.5" ry="2.5" style="stroke:#181818;stroke-width:0.5;" width="75.7881" x="218.13" y="151.2969"/><text fill="#000000" font-family="sans-serif" font-size="14" lengthAdjust="spacing" textLength="55.7881" x="228.13" y="174.292">libonig5</text></g><!--entity libcrypt1--><g class="entity" data-entity="libcrypt1" data-source-line="9" data-uid="ent0011" id="entity_libcrypt1"><rect fill="#F1F1F1" height="36.2969" rx="2.5" ry="2.5" style="stroke:#181818;stroke-width:0.5;" width="81.6875" x="467.44" y="44.2969"/><text fill="#000000" font-family="sans-serif" font-size="14" lengthAdjust="spacing" textLength="61.6875" x="477.44" y="67.292">libcrypt1</text></g><!--entity libgcc-s1--><g class="entity" data-entity="libgcc-s1" data-source-line="10" data-uid="ent0013" id="entity_libgcc-s1"><rect fill="#F1F1F1" height="36.2969" rx="2.5" ry="2.5" style="stroke:#181818;stroke-width:0.5;" width="82.2002" x="467.18" y="115.2969"/><text fill="#000000" font-family="sans-serif" font-size="14" lengthAdjust="spacing" textLength="62.2002" x="477.18" y="138.292">libgcc-s1</text></g><!--entity gcc-12-base--><g class="entity" data-entity="gcc-12-base" data-source-line="12" data-uid="ent0016" id="entity_gcc-12-base"><rect fill="#F1F1F1" height="36.2969" rx="2.5" ry="2.5" style="stroke:#181818;stroke-width:0.5;" width="105.5723" x="609.38" y="115.2969"/><text fill="#000000" font-family="sans-serif" font-size="14" lengthAdjust="spacing" textLength="85.5723" x="619.38" y="138.292">gcc-12-base</text></g><!--link jq to libc6--><g class="link" data-entity-1="jq" data-entity-2="libc6" data-source-line="4" data-uid="lnk4" id="link_jq_libc6"><path d="M40.06,62.3469 C81.79,59.7469 198.87,54.7469 293.91,72.4469 C314.38,76.2569 331.2133,81.264 348.0133,87.014" fill="none" id="jq-to-libc6" style="stroke:#181818;stroke-width:1;"/><polygon fill="#181818" points="353.69,88.9569,346.4702,82.258,348.9594,87.3378,343.8797,89.827,353.69,88.9569" style="stroke:#181818;stroke-width:1;"/></g><!--link jq to libjq1--><g class="link" data-entity-1="jq" data-entity-2="libjq1" data-source-line="5" data-uid="lnk6" id="link_jq_libjq1"><path d="M40.12,68.7669 C55.85,74.0769 74.7057,80.4564 93.8557,86.9264" fill="none" id="jq-to-libjq1" style="stroke:#181818;stroke-width:1;"/><polygon fill="#181818" points="99.54,88.8469,92.2938,82.1766,94.8031,87.2465,89.7332,89.7557,99.54,88.8469" style="stroke:#181818;stroke-width:1;"/></g><!--link libjq1 to libc6--><g class="link" data-entity-1="libjq1" data-entity-2="libc6" data-source-line="6" data-uid="lnk7" id="link_libjq1_libc6"><path d="M158.58,98.4469 C207.5,98.4469 300.42,98.4469 347.51,98.4469" fill="none" id="libjq1-to-libc6" style="stroke:#181818;stroke-width:1;"/><polygon fill="#181818" points="353.51,98.4469,344.51,94.4469,348.51,98.4469,344.51,102.4469,353.51,98.4469" style="stroke:#181818;stroke-width:1;"/></g><!--link libjq1 to libonig5--><g class="link" data-entity-1="libjq1" data-entity-2="libonig5" data-source-line="7" data-uid="lnk9" id="link_libjq1_libonig5"><path d="M158.33,114.5569 C177.36,125.3569 197.2528,136.6536 217.1128,147.9336" fill="none" id="libjq1-to-libonig5" style="stroke:#181818;stroke-width:1;"/><polygon fill="#181818" points="222.33,150.8969,216.4797,142.9739,217.9823,148.4275,212.5287,149.9301,222.33,150.8969" style="stroke:#181818;stroke-width:1;"/></g><!--link libonig5 to libc6--><g class="link" data-entity-1="libonig5" data-entity-2="libc6" data-source-line="8" data-uid="lnk10" id="link_libonig5_libc6"><path d="M288.89,150.9769 C309.03,139.3069 329.5291,127.4359 348.4191,116.4859" fill="none" id="libonig5-to-libc6" style="stroke:#181818;stroke-width:1;"/><polygon fill="#181818" points="353.61,113.4769,343.8176,114.5298,349.2842,115.9844,347.8296,121.451,353.61,113.4769" style="stroke:#181818;stroke-width:1;"/></g><!--link libc6 to libcrypt1--><g class="link" data-entity-1="libc6" data-entity-2="libcrypt1" data-source-line="9" data-uid="lnk12" id="link_libc6_libcrypt1"><path d="M407.6,101.5569 C428.75,98.3569 452.9361,92.1914 474.4161,83.3014" fill="none" id="libc6-to-libcrypt1" style="stroke:#181818;stroke-width:1;"/><polygon fill="#181818" points="479.96,81.0069,470.1144,80.7526,475.34,82.919,473.1737,88.1446,479.96,81.0069" style="stroke:#181818;stroke-width:1;"/></g><!--link libcrypt1 to libc6--><g class="link" data-entity-1="libcrypt1" data-entity-2="libc6" data-source-line="11" data-uid="lnk15" id="link_libcrypt1_libc6"><path d="M467.39,61.2069 C447.85,65.3169 430.3827,70.0184 413.1127,77.4384" fill="none" id="libcrypt1-to-libc6" style="stroke:#181818;stroke-width:1;"/><polygon fill="#181818" points="407.6,79.8069,417.4481,79.9292,412.1939,77.8331,414.2901,72.5789,407.6,79.8069" style="stroke:#181818;stroke-width:1;"/></g><!--link libc6 to libgcc-s1--><g class="link" data-entity-1="libc6" data-entity-2="libgcc-s1" data-source-line="10" data-uid="lnk14" id="link_libc6_libgcc-s1"><path d="M407.6,116.2669 C424.72,123.3469 441.5867,128.9203 461.0267,132.9803" fill="none" id="libc6-to-libgcc-s1" style="stroke:#181818;stroke-width:1;"/><polygon fill="#181818" points="466.9,134.2069,458.9078,128.4514,462.0056,133.1847,457.2723,136.2825,466.9,134.2069" style="stroke:#181818;stroke-width:1;"/></g><!--link libgcc-s1 to libc6--><g class="link" data-entity-1="libgcc-s1" data-entity-2="libc6" data-source-line="13" data-uid="lnk18" id="link_libgcc-s1_libc6"><path d="M480.83,114.8469 C459.29,105.8169 434.9859,98.2211 413.5459,95.3211" fill="none" id="libgcc-s1-to-libc6" style="stroke:#181818;stroke-width:1;"/><polygon fill="#181818" points="407.6,94.5169,415.9826,99.6871,412.5549,95.1871,417.0549,91.7593,407.6,94.5169" style="stroke:#181818;stroke-width:1;"/></g><!--link libgcc-s1 to gcc-12-base--><g class="link" data-entity-1="libgcc-s1" data-entity-2="gcc-12-base" data-source-line="12" data-uid="lnk17" id="link_libgcc-s1_gcc-12-base"><path d="M549.59,133.4469 C567.78,133.4469 583.5,133.4469 602.92,133.4469" fill="none" id="libgcc-s1-to-gcc-12-base" style="stroke:#181818;stroke-width:1;"/><polygon fill="#181818" points="608.92,133.4469,599.92,129.4469,603.92,133.4469,599.92,137.4469,608.92,133.4469" style="stroke:#181818;stroke-width:1;"/></g><!--SRC=[ROnD4i8W34Rtd28NO84pklGIBZjTK4GCKdwpwUsbGpjQSPKlB-yB8JaDDZ6d7mGK8ADv4jmnQqKOF2ilz55cEOCASmnUUxhHKZkh8BrncWqsZS3v5GQ7axgCHs2Jg6GBH-qN1e_ct7YBdLxdX-KbakYvKOgNdJUd-xCvZQ-BEF595ltdkhU-hJS0]--></g></svg>