<?xml version="1.0" encoding="UTF-8" standalone="no"?>
<!DOCTYPE svg PUBLIC "-//W3C//DTD SVG 1.1//EN"
 "http://www.w3.org/Graphics/SVG/1.1/DTD/svg11.dtd">
<!-- Generated by graphviz version 2.43.0 (0)
 -->
<!-- Title: packages Pages: 1 -->
<svg width="2160pt" height="350pt"
 viewBox="0.00 0.00 2160.00 350.25" xmlns="http://www.w3.org/2000/svg" xmlns:xlink="http://www.w3.org/1999/xlink">
<g id="graph0" class="graph" transform="scale(0.74 0.74) rotate(0) translate(4 472)">
<title>packages</title>
<polygon fill="white" stroke="transparent" points="-4,4 -4,-472 2931.5,-472 2931.5,4 -4,4"/>
<!-- jq -->
<g id="node1" class="node">
<title>jq</title>
<polygon fill="none" stroke="black" points="1952.5,-468 1898.5,-468 1898.5,-432 1952.5,-432 1952.5,-468"/>
<text text-anchor="middle" x="1925.5" y="-446.3" font-family="Times,serif" font-size="14.00">jq</text>
</g>
<!-- libc6 -->
<g id="node2" class="node">
<title>libc6</title>
<polygon fill="none" stroke="black" points="1985.5,-252 1931.5,-252 1931.5,-216 1985.5,-216 1985.5,-252"/>
<text text-anchor="middle" x="1958.5" y="-230.3" font-family="Times,serif" font-size="14.00">libc6</text>
</g>
<!-- jq&#45;&gt;libc6 -->
<g id="edge1" class="edge">
<title>jq&#45;&gt;libc6</title>
<path fill="none" stroke="black" d="M1919.48,-431.89C1909.88,-401.74 1893.96,-337.65 1912.5,-288 1916.38,-277.62 1923.3,-267.93 1930.62,-259.74"/>
<polygon fill="black" stroke="black" points="1933.28,-262.03 1937.68,-252.38 1928.23,-257.18 1933.28,-262.03"/>
</g>
<!-- libjq1 -->
<g id="node3" class="node">
<title>libjq1</title>
<polygon fill="none" stroke="black" points="1987,-396 1930,-396 1930,-360 1987,-360 1987,-396"/>
<text text-anchor="middle" x="1958.5" y="-374.3" font-family="Times,serif" font-size="14.00">libjq1</text>
</g>
<!-- jq&#45;&gt;libjq1 -->
<g id="edge2" class="edge">
<title>jq&#45;&gt;libjq1</title>
<path fill="none" stroke="black" d="M1933.66,-431.7C1937.41,-423.73 1941.95,-414.1 1946.12,-405.26"/>
<polygon fill="black" stroke="black" points="1949.34,-406.64 1950.44,-396.1 1943.01,-403.66 1949.34,-406.64"/>
</g>
<!-- libgcc&#45;s1 -->
<g id="node5" class="node">
<title>libgcc&#45;s1</title>
<polygon fill="none" stroke="black" points="90.5,-180 10.5,-180 10.5,-144 90.5,-144 90.5,-180"/>
<text text-anchor="middle" x="50.5" y="-158.3" font-family="Times,serif" font-size="14.00">libgcc&#45;s1</text>
</g>
<!-- libc6&#45;&gt;libgcc&#45;s1 -->
<g id="edge6" class="edge">
<title>libc6&#45;&gt;libgcc&#45;s1</title>
<path fill="none" stroke="black" d="M1921.16,-232.62C1678.45,-230.06 327.78,-214.42 100.57,-179.68"/>
<polygon fill="black" stroke="black" points="1921.36,-236.12 1931.4,-232.73 1921.43,-229.12 1921.36,-236.12"/>
<polygon fill="black" stroke="black" points="101.05,-176.21 90.61,-178.01 99.9,-183.11 101.05,-176.21"/>
</g>
<!-- chrony -->
<g id="node6" class="node">
<title>chrony</title>
<polygon fill="none" stroke="orange" points="174,-180 109,-180 109,-144 174,-144 174,-180"/>
<text text-anchor="middle" x="141.5" y="-158.3" font-family="Times,serif" font-size="14.00">chrony</text>
</g>
<!-- libc6&#45;&gt;chrony -->
<g id="edge7" class="edge">
<title>libc6&#45;&gt;chrony</title>
<path fill="none" stroke="springgreen" d="M1931.29,-232.77C1724.63,-230.93 405.12,-217.88 184.13,-179.41"/>
<polygon fill="springgreen" stroke="springgreen" points="184.65,-175.95 174.17,-177.5 183.33,-182.82 184.65,-175.95"/>
</g>
<!-- cyrus&#45;imapd -->
<g id="node7" class="node">
<title>cyrus&#45;imapd</title>
<polygon fill="none" stroke="orange" points="296.5,-180 192.5,-180 192.5,-144 296.5,-144 296.5,-180"/>
<text text-anchor="middle" x="244.5" y="-158.3" font-family="Times,serif" font-size="14.00">cyrus&#45;imapd</text>
</g>
<!-- libc6&#45;&gt;cyrus&#45;imapd -->
<g id="edge8" class="edge">
<title>libc6&#45;&gt;cyrus&#45;imapd</title>
<path fill="none" stroke="springgreen" d="M1931.33,-233.02C1745.46,-233.02 658.55,-230.88 306.51,-179.88"/>
<polygon fill="springgreen" stroke="springgreen" points="306.97,-176.41 296.56,-178.39 305.94,-183.33 306.97,-176.41"/>
</g>
<!-- fakechroot -->
<g id="node8" class="node">
<title>fakechroot</title>
<polygon fill="none" stroke="orange" points="406.5,-180 314.5,-180 314.5,-144 406.5,-144 406.5,-180"/>
<text text-anchor="middle" x="360.5" y="-158.3" font-family="Times,serif" font-size="14.00">fakechroot</text>
</g>
<!-- libc6&#45;&gt;fakechroot -->
<g id="edge9" class="edge">
<title>libc6&#45;&gt;fakechroot</title>
<path fill="none" stroke="springgreen" d="M1931.41,-233.05C1753.08,-233.24 744.73,-232 416.77,-179.89"/>
<polygon fill="springgreen" stroke="springgreen" points="417.24,-176.42 406.8,-178.26 416.1,-183.33 417.24,-176.42"/>
</g>
<!-- firefox -->
<g id="node9" class="node">
<title>firefox</title>
<polygon fill="none" stroke="orange" points="486.5,-180 424.5,-180 424.5,-144 486.5,-144 486.5,-180"/>
<text text-anchor="middle" x="455.5" y="-158.3" font-family="Times,serif" font-size="14.00">firefox</text>
</g>
<!-- libc6&#45;&gt;firefox -->
<g id="edge10" class="edge">
<title>libc6&#45;&gt;firefox</title>
<path fill="none" stroke="springgreen" d="M1931.46,-232.61C1747.54,-229.91 682.4,-212.99 496.41,-179.46"/>
<polygon fill="springgreen" stroke="springgreen" points="497.08,-176.02 486.58,-177.48 495.7,-182.88 497.08,-176.02"/>
</g>
<!-- firefox&#45;esr -->
<g id="node10" class="node">
<title>firefox&#45;esr</title>
<polygon fill="none" stroke="black" points="638.09,-162 604.79,-180 538.21,-180 504.91,-162 538.21,-144 604.79,-144 638.09,-162"/>
<text text-anchor="middle" x="571.5" y="-158.3" font-family="Times,serif" font-size="14.00">firefox&#45;esr</text>
</g>
<!-- libc6&#45;&gt;firefox&#45;esr -->
<g id="edge11" class="edge">
<title>libc6&#45;&gt;firefox&#45;esr</title>
<path fill="none" stroke="springgreen" d="M1931.43,-232.57C1767.76,-229.86 908.65,-214.2 647.5,-180 640.31,-179.06 632.8,-177.77 625.41,-176.31"/>
<polygon fill="springgreen" stroke="springgreen" points="625.97,-172.85 615.47,-174.24 624.54,-179.7 625.97,-172.85"/>
</g>
<!-- gnumach&#45;image&#45;1.8&#45;486 -->
<g id="node11" class="node">
<title>gnumach&#45;image&#45;1.8&#45;486</title>
<polygon fill="none" stroke="black" points="938.68,-162 868.09,-180 726.91,-180 656.32,-162 726.91,-144 868.09,-144 938.68,-162"/>
<text text-anchor="middle" x="797.5" y="-158.3" font-family="Times,serif" font-size="14.00">gnumach&#45;image&#45;1.8&#45;486</text>
</g>
<!-- libc6&#45;&gt;gnumach&#45;image&#45;1.8&#45;486 -->
<g id="edge12" class="edge">
<title>libc6&#45;&gt;gnumach&#45;image&#45;1.8&#45;486</title>
<path fill="none" stroke="springgreen" d="M1931.12,-232.17C1813.22,-228.48 1337.24,-212.27 947.5,-180 932.29,-178.74 916.23,-177.17 900.51,-175.51"/>
<polygon fill="springgreen" stroke="springgreen" points="900.55,-171.99 890.23,-174.4 899.8,-178.95 900.55,-171.99"/>
</g>
<!-- gnumach&#45;image&#45;1.8&#45;486&#45;dbg -->
<g id="node12" class="node">
<title>gnumach&#45;image&#45;1.8&#45;486&#45;dbg</title>
<polygon fill="none" stroke="black" points="1286.72,-162 1204.11,-180 1038.89,-180 956.28,-162 1038.89,-144 1204.11,-144 1286.72,-162"/>
<text text-anchor="middle" x="1121.5" y="-158.3" font-family="Times,serif" font-size="14.00">gnumach&#45;image&#45;1.8&#45;486&#45;dbg</text>
</g>
<!-- libc6&#45;&gt;gnumach&#45;image&#45;1.8&#45;486&#45;dbg -->
<g id="edge13" class="edge">
<title>libc6&#45;&gt;gnumach&#45;image&#45;1.8&#45;486&#45;dbg</title>
<path fill="none" stroke="springgreen" d="M1931.33,-231C1840.96,-224.31 1542.21,-201.91 1295.5,-180 1278.03,-178.45 1259.57,-176.73 1241.47,-175"/>
<polygon fill="springgreen" stroke="springgreen" points="1241.75,-171.51 1231.46,-174.04 1241.08,-178.48 1241.75,-171.51"/>
</g>
<!-- gnumach&#45;image&#45;1.8&#45;xen&#45;486 -->
<g id="node13" class="node">
<title>gnumach&#45;image&#45;1.8&#45;xen&#45;486</title>
<polygon fill="none" stroke="black" points="1632.21,-162 1550.36,-180 1386.64,-180 1304.79,-162 1386.64,-144 1550.36,-144 1632.21,-162"/>
<text text-anchor="middle" x="1468.5" y="-158.3" font-family="Times,serif" font-size="14.00">gnumach&#45;image&#45;1.8&#45;xen&#45;486</text>
</g>
<!-- libc6&#45;&gt;gnumach&#45;image&#45;1.8&#45;xen&#45;486 -->
<g id="edge14" class="edge">
<title>libc6&#45;&gt;gnumach&#45;image&#45;1.8&#45;xen&#45;486</title>
<path fill="none" stroke="springgreen" d="M1931.46,-229.14C1864.85,-219.62 1689.98,-194.64 1575.25,-178.25"/>
<polygon fill="springgreen" stroke="springgreen" points="1575.42,-174.74 1565.03,-176.79 1574.43,-181.67 1575.42,-174.74"/>
</g>
<!-- gnumach&#45;image&#45;1.8&#45;xen&#45;486&#45;dbg -->
<g id="node14" class="node">
<title>gnumach&#45;image&#45;1.8&#45;xen&#45;486&#45;dbg</title>
<polygon fill="none" stroke="black" points="2025.24,-162 1931.37,-180 1743.63,-180 1649.76,-162 1743.63,-144 1931.37,-144 2025.24,-162"/>
<text text-anchor="middle" x="1837.5" y="-158.3" font-family="Times,serif" font-size="14.00">gnumach&#45;image&#45;1.8&#45;xen&#45;486&#45;dbg</text>
</g>
<!-- libc6&#45;&gt;gnumach&#45;image&#45;1.8&#45;xen&#45;486&#45;dbg -->
<g id="edge15" class="edge">
<title>libc6&#45;&gt;gnumach&#45;image&#45;1.8&#45;xen&#45;486&#45;dbg</title>
<path fill="none" stroke="springgreen" d="M1931.35,-217.29C1915.09,-207.89 1894.16,-195.78 1876.19,-185.38"/>
<polygon fill="springgreen" stroke="springgreen" points="1877.51,-182.11 1867.11,-180.13 1874.01,-188.16 1877.51,-182.11"/>
</g>
<!-- hurd -->
<g id="node15" class="node">
<title>hurd</title>
<polygon fill="none" stroke="black" points="2118.05,-162 2099.27,-180 2061.73,-180 2042.95,-162 2061.73,-144 2099.27,-144 2118.05,-162"/>
<text text-anchor="middle" x="2080.5" y="-158.3" font-family="Times,serif" font-size="14.00">hurd</text>
</g>
<!-- libc6&#45;&gt;hurd -->
<g id="edge16" class="edge">
<title>libc6&#45;&gt;hurd</title>
<path fill="none" stroke="springgreen" d="M1985.58,-217.46C2004.24,-206.76 2029.12,-192.48 2048.73,-181.23"/>
<polygon fill="springgreen" stroke="springgreen" points="2050.67,-184.15 2057.6,-176.14 2047.18,-178.08 2050.67,-184.15"/>
</g>
<!-- locales -->
<g id="node16" class="node">
<title>locales</title>
<polygon fill="none" stroke="orange" points="2201,-180 2136,-180 2136,-144 2201,-144 2201,-180"/>
<text text-anchor="middle" x="2168.5" y="-158.3" font-family="Times,serif" font-size="14.00">locales</text>
</g>
<!-- libc6&#45;&gt;locales -->
<g id="edge17" class="edge">
<title>libc6&#45;&gt;locales</title>
<path fill="none" stroke="springgreen" d="M1985.68,-225.29C2017.44,-216.1 2071.72,-199.86 2126.43,-180.25"/>
<polygon fill="springgreen" stroke="springgreen" points="2127.72,-183.51 2135.93,-176.81 2125.33,-176.92 2127.72,-183.51"/>
</g>
<!-- locales&#45;all -->
<g id="node17" class="node">
<title>locales&#45;all</title>
<polygon fill="none" stroke="orange" points="2306,-180 2219,-180 2219,-144 2306,-144 2306,-180"/>
<text text-anchor="middle" x="2262.5" y="-158.3" font-family="Times,serif" font-size="14.00">locales&#45;all</text>
</g>
<!-- libc6&#45;&gt;locales&#45;all -->
<g id="edge18" class="edge">
<title>libc6&#45;&gt;locales&#45;all</title>
<path fill="none" stroke="springgreen" d="M1985.58,-228.3C2030.31,-220.33 2122.54,-203 2209.19,-180.22"/>
<polygon fill="springgreen" stroke="springgreen" points="2210.15,-183.58 2218.91,-177.63 2208.35,-176.82 2210.15,-183.58"/>
</g>
<!-- nscd -->
<g id="node18" class="node">
<title>nscd</title>
<polygon fill="none" stroke="black" points="2408.5,-180 2362.58,-162 2408.5,-144 2454.42,-162 2408.5,-180"/>
<text text-anchor="middle" x="2408.5" y="-158.3" font-family="Times,serif" font-size="14.00">nscd</text>
</g>
<!-- libc6&#45;&gt;nscd -->
<g id="edge19" class="edge">
<title>libc6&#45;&gt;nscd</title>
<path fill="none" stroke="springgreen" d="M1995.73,-229.71C2065.46,-223.15 2220.29,-206.73 2348.5,-180 2357.11,-178.2 2366.29,-175.84 2374.82,-173.44"/>
<polygon fill="springgreen" stroke="springgreen" points="1995.31,-226.23 1985.67,-230.64 1995.96,-233.2 1995.31,-226.23"/>
<polygon fill="springgreen" stroke="springgreen" points="2375.83,-176.79 2384.46,-170.65 2373.88,-170.07 2375.83,-176.79"/>
</g>
<!-- python3&#45;iptables -->
<g id="node19" class="node">
<title>python3&#45;iptables</title>
<polygon fill="none" stroke="orange" points="2648,-180 2511,-180 2511,-144 2648,-144 2648,-180"/>
<text text-anchor="middle" x="2579.5" y="-158.3" font-family="Times,serif" font-size="14.00">python3&#45;iptables</text>
</g>
<!-- libc6&#45;&gt;python3&#45;iptables -->
<g id="edge20" class="edge">
<title>libc6&#45;&gt;python3&#45;iptables</title>
<path fill="none" stroke="springgreen" d="M1985.78,-231.32C2065,-226.22 2301.85,-209.44 2496.5,-180 2497.81,-179.8 2499.13,-179.6 2500.46,-179.39"/>
<polygon fill="springgreen" stroke="springgreen" points="2501.48,-182.76 2510.76,-177.65 2500.31,-175.86 2501.48,-182.76"/>
</g>
<!-- scipy -->
<g id="node20" class="node">
<title>scipy</title>
<polygon fill="none" stroke="black" points="2745.05,-162 2725.28,-180 2685.72,-180 2665.95,-162 2685.72,-144 2725.28,-144 2745.05,-162"/>
<text text-anchor="middle" x="2705.5" y="-158.3" font-family="Times,serif" font-size="14.00">scipy</text>
</g>
<!-- libc6&#45;&gt;scipy -->
<g id="edge21" class="edge">
<title>libc6&#45;&gt;scipy</title>
<path fill="none" stroke="springgreen" d="M1985.52,-233.5C2079.49,-234.7 2400.29,-234.29 2657.5,-180 2661.33,-179.19 2665.27,-178.15 2669.18,-176.99"/>
<polygon fill="springgreen" stroke="springgreen" points="2670.27,-180.32 2678.7,-173.9 2668.11,-173.66 2670.27,-180.32"/>
</g>
<!-- tinydns -->
<g id="node21" class="node">
<title>tinydns</title>
<polygon fill="none" stroke="orange" points="2833.5,-180 2763.5,-180 2763.5,-144 2833.5,-144 2833.5,-180"/>
<text text-anchor="middle" x="2798.5" y="-158.3" font-family="Times,serif" font-size="14.00">tinydns</text>
</g>
<!-- libc6&#45;&gt;tinydns -->
<g id="edge22" class="edge">
<title>libc6&#45;&gt;tinydns</title>
<path fill="none" stroke="springgreen" d="M1985.6,-232.29C2104.76,-229.02 2583.33,-214.1 2753.22,-179.8"/>
<polygon fill="springgreen" stroke="springgreen" points="2754.19,-183.18 2763.24,-177.68 2752.73,-176.33 2754.19,-183.18"/>
</g>
<!-- valgrind -->
<g id="node22" class="node">
<title>valgrind</title>
<polygon fill="none" stroke="orange" points="2927.5,-180 2851.5,-180 2851.5,-144 2927.5,-144 2927.5,-180"/>
<text text-anchor="middle" x="2889.5" y="-158.3" font-family="Times,serif" font-size="14.00">valgrind</text>
</g>
<!-- libc6&#45;&gt;valgrind -->
<g id="edge23" class="edge">
<title>libc6&#45;&gt;valgrind</title>
<path fill="none" stroke="springgreen" d="M1985.92,-232.41C2113.79,-229.52 2652.75,-215.55 2841.24,-179.83"/>
<polygon fill="springgreen" stroke="springgreen" points="2842.16,-183.22 2851.29,-177.84 2840.8,-176.35 2842.16,-183.22"/>
</g>
<!-- libjq1&#45;&gt;libc6 -->
<g id="edge3" class="edge">
<title>libjq1&#45;&gt;libc6</title>
<path fill="none" stroke="black" d="M1979.32,-359.62C1988.96,-350.2 1999.39,-337.7 2004.5,-324 2010.1,-309.01 2010.1,-302.99 2004.5,-288 2000.62,-277.62 1993.7,-267.93 1986.38,-259.74"/>
<polygon fill="black" stroke="black" points="1988.77,-257.18 1979.32,-252.38 1983.72,-262.03 1988.77,-257.18"/>
</g>
<!-- libonig5 -->
<g id="node4" class="node">
<title>libonig5</title>
<polygon fill="none" stroke="black" points="1995.5,-324 1921.5,-324 1921.5,-288 1995.5,-288 1995.5,-324"/>
<text text-anchor="middle" x="1958.5" y="-302.3" font-family="Times,serif" font-size="14.00">libonig5</text>
</g>
<!-- libjq1&#45;&gt;libonig5 -->
<g id="edge4" class="edge">
<title>libjq1&#45;&gt;libonig5</title>
<path fill="none" stroke="black" d="M1958.5,-359.7C1958.5,-351.98 1958.5,-342.71 1958.5,-334.11"/>
<polygon fill="black" stroke="black" points="1962,-334.1 1958.5,-324.1 1955,-334.1 1962,-334.1"/>
</g>
<!-- libonig5&#45;&gt;libc6 -->
<g id="edge5" class="edge">
<title>libonig5&#45;&gt;libc6</title>
<path fill="none" stroke="black" d="M1958.5,-287.7C1958.5,-279.98 1958.5,-270.71 1958.5,-262.11"/>
<polygon fill="black" stroke="black" points="1962,-262.1 1958.5,-252.1 1955,-262.1 1962,-262.1"/>
</g>
<!-- gcc&#45;14&#45;base -->
<g id="node27" class="node">
<title>gcc&#45;14&#45;base</title>
<polygon fill="none" stroke="black" points="101,-108 0,-108 0,-72 101,-72 101,-108"/>
<text text-anchor="middle" x="50.5" y="-86.3" font-family="Times,serif" font-size="14.00">gcc&#45;14&#45;base</text>
</g>
<!-- libgcc&#45;s1&#45;&gt;gcc&#45;14&#45;base -->
<g id="edge30" class="edge">
<title>libgcc&#45;s1&#45;&gt;gcc&#45;14&#45;base</title>
<path fill="none" stroke="black" d="M50.5,-143.7C50.5,-135.98 50.5,-126.71 50.5,-118.11"/>
<polygon fill="black" stroke="black" points="54,-118.1 50.5,-108.1 47,-118.1 54,-118.1"/>
</g>
<!-- init&#45;system&#45;helpers -->
<g id="node23" class="node">
<title>init&#45;system&#45;helpers</title>
<polygon fill="none" stroke="black" points="2362.5,-108 2208.5,-108 2208.5,-72 2362.5,-72 2362.5,-108"/>
<text text-anchor="middle" x="2285.5" y="-86.3" font-family="Times,serif" font-size="14.00">init&#45;system&#45;helpers</text>
</g>
<!-- nscd&#45;&gt;init&#45;system&#45;helpers -->
<g id="edge24" class="edge">
<title>nscd&#45;&gt;init&#45;system&#45;helpers</title>
<path fill="none" stroke="blue" d="M2390.61,-150.82C2373.4,-141.02 2346.79,-125.88 2324.65,-113.28"/>
<polygon fill="blue" stroke="blue" points="2326.21,-110.14 2315.79,-108.24 2322.75,-116.22 2326.21,-110.14"/>
</g>
<!-- libaudit1 -->
<g id="node24" class="node">
<title>libaudit1</title>
<polygon fill="none" stroke="black" points="2190.5,-108 2110.5,-108 2110.5,-72 2190.5,-72 2190.5,-108"/>
<text text-anchor="middle" x="2150.5" y="-86.3" font-family="Times,serif" font-size="14.00">libaudit1</text>
</g>
<!-- nscd&#45;&gt;libaudit1 -->
<g id="edge25" class="edge">
<title>nscd&#45;&gt;libaudit1</title>
<path fill="none" stroke="black" d="M2383.45,-153.67C2372.72,-150.59 2360.02,-147.02 2348.5,-144 2285.56,-127.49 2266.56,-127.18 2200.2,-108.06"/>
<polygon fill="black" stroke="black" points="2201.09,-104.68 2190.51,-105.23 2199.13,-111.4 2201.09,-104.68"/>
</g>
<!-- libcap2 -->
<g id="node25" class="node">
<title>libcap2</title>
<polygon fill="none" stroke="black" points="2448.5,-108 2380.5,-108 2380.5,-72 2448.5,-72 2448.5,-108"/>
<text text-anchor="middle" x="2414.5" y="-86.3" font-family="Times,serif" font-size="14.00">libcap2</text>
</g>
<!-- nscd&#45;&gt;libcap2 -->
<g id="edge28" class="edge">
<title>nscd&#45;&gt;libcap2</title>
<path fill="none" stroke="black" d="M2409.92,-144.41C2410.58,-136.71 2411.39,-127.34 2412.13,-118.62"/>
<polygon fill="black" stroke="black" points="2415.64,-118.71 2413,-108.45 2408.66,-118.11 2415.64,-118.71"/>
</g>
<!-- libselinux1 -->
<g id="node26" class="node">
<title>libselinux1</title>
<polygon fill="none" stroke="black" points="2600,-108 2505,-108 2505,-72 2600,-72 2600,-108"/>
<text text-anchor="middle" x="2552.5" y="-86.3" font-family="Times,serif" font-size="14.00">libselinux1</text>
</g>
<!-- nscd&#45;&gt;libselinux1 -->
<g id="edge29" class="edge">
<title>nscd&#45;&gt;libselinux1</title>
<path fill="none" stroke="black" d="M2427.92,-151.56C2448.38,-141.61 2481.31,-125.61 2508.17,-112.55"/>
<polygon fill="black" stroke="black" points="2509.93,-115.59 2517.39,-108.07 2506.87,-109.29 2509.93,-115.59"/>
</g>
<!-- libaudit1&#45;&gt;libc6 -->
<g id="edge37" class="edge">
<title>libaudit1&#45;&gt;libc6</title>
<path fill="none" stroke="black" d="M2190.57,-105.02C2193.59,-106.04 2196.59,-107.04 2199.5,-108 2250.78,-124.85 2283.48,-100.54 2315.5,-144 2324.99,-156.88 2325.95,-167.88 2315.5,-180 2274.48,-227.56 2078.8,-233.13 1995.82,-233.31"/>
<polygon fill="black" stroke="black" points="1995.59,-229.81 1985.58,-233.31 1995.58,-236.81 1995.59,-229.81"/>
</g>
<!-- libaudit&#45;common -->
<g id="node29" class="node">
<title>libaudit&#45;common</title>
<polygon fill="none" stroke="black" points="2218.5,-36 2082.5,-36 2082.5,0 2218.5,0 2218.5,-36"/>
<text text-anchor="middle" x="2150.5" y="-14.3" font-family="Times,serif" font-size="14.00">libaudit&#45;common</text>
</g>
<!-- libaudit1&#45;&gt;libaudit&#45;common -->
<g id="edge36" class="edge">
<title>libaudit1&#45;&gt;libaudit&#45;common</title>
<path fill="none" stroke="black" d="M2150.5,-71.7C2150.5,-63.98 2150.5,-54.71 2150.5,-46.11"/>
<polygon fill="black" stroke="black" points="2154,-46.1 2150.5,-36.1 2147,-46.1 2154,-46.1"/>
</g>
<!-- libcap&#45;ng0 -->
<g id="node30" class="node">
<title>libcap&#45;ng0</title>
<polygon fill="none" stroke="black" points="2444,-36 2353,-36 2353,0 2444,0 2444,-36"/>
<text text-anchor="middle" x="2398.5" y="-14.3" font-family="Times,serif" font-size="14.00">libcap&#45;ng0</text>
</g>
<!-- libaudit1&#45;&gt;libcap&#45;ng0 -->
<g id="edge38" class="edge">
<title>libaudit1&#45;&gt;libcap&#45;ng0</title>
<path fill="none" stroke="black" d="M2190.53,-74.84C2193.56,-73.85 2196.57,-72.9 2199.5,-72 2247.56,-57.28 2302.85,-42.75 2342.93,-32.63"/>
<polygon fill="black" stroke="black" points="2343.94,-35.99 2352.78,-30.16 2342.23,-29.2 2343.94,-35.99"/>
</g>
<!-- libcap2&#45;&gt;libc6 -->
<g id="edge34" class="edge">
<title>libcap2&#45;&gt;libc6</title>
<path fill="none" stroke="black" d="M2448.11,-108.07C2470.44,-120.97 2494.69,-138.89 2488.96,-153.36"/>
<polygon fill="black" stroke="black" points="2486.29,-151.11 2482.5,-161 2491.63,-155.63 2486.29,-151.11"/>
<path fill="none" stroke="black" d="M2482.5,-163C2473.31,-169.63 2473.86,-175.41 2463.5,-180 2376.56,-218.54 2077.48,-229.76 1985.58,-232.34"/>
</g>
<!-- libselinux1&#45;&gt;libc6 -->
<g id="edge32" class="edge">
<title>libselinux1&#45;&gt;libc6</title>
<path fill="none" stroke="black" d="M2536.61,-108.1C2522.92,-122.67 2503.35,-143.01 2490.32,-154.58"/>
<polygon fill="black" stroke="black" points="2488,-151.95 2482.5,-161 2492.45,-157.36 2488,-151.95"/>
</g>
<!-- libpcre2&#45;8&#45;0 -->
<g id="node28" class="node">
<title>libpcre2&#45;8&#45;0</title>
<polygon fill="none" stroke="black" points="2641.5,-36 2539.5,-36 2539.5,0 2641.5,0 2641.5,-36"/>
<text text-anchor="middle" x="2590.5" y="-14.3" font-family="Times,serif" font-size="14.00">libpcre2&#45;8&#45;0</text>
</g>
<!-- libselinux1&#45;&gt;libpcre2&#45;8&#45;0 -->
<g id="edge33" class="edge">
<title>libselinux1&#45;&gt;libpcre2&#45;8&#45;0</title>
<path fill="none" stroke="black" d="M2561.89,-71.7C2566.26,-63.64 2571.56,-53.89 2576.4,-44.98"/>
<polygon fill="black" stroke="black" points="2579.52,-46.56 2581.21,-36.1 2573.37,-43.22 2579.52,-46.56"/>
</g>
<!-- gnat -->
<g id="node31" class="node">
<title>gnat</title>
<polygon fill="none" stroke="orange" points="77.5,-36 23.5,-36 23.5,0 77.5,0 77.5,-36"/>
<text text-anchor="middle" x="50.5" y="-14.3" font-family="Times,serif" font-size="14.00">gnat</text>
</g>
<!-- gcc&#45;14&#45;base&#45;&gt;gnat -->
<g id="edge39" class="edge">
<title>gcc&#45;14&#45;base&#45;&gt;gnat</title>
<path fill="none" stroke="springgreen" d="M50.5,-71.7C50.5,-63.98 50.5,-54.71 50.5,-46.11"/>
<polygon fill="springgreen" stroke="springgreen" points="54,-46.1 50.5,-36.1 47,-46.1 54,-46.1"/>
</g>
<!-- libpcre2&#45;8&#45;0&#45;&gt;libc6 -->
<g id="edge35" class="edge">
<title>libpcre2&#45;8&#45;0&#45;&gt;libc6</title>
<path fill="none" stroke="black" d="M2601.38,-36.02C2612.12,-55.23 2624.9,-86.57 2609.5,-108 2580.22,-148.75 2546.18,-119.31 2502.5,-144 2495.99,-147.68 2493.5,-150.81 2490.05,-154.39"/>
<polygon fill="black" stroke="black" points="2487.72,-151.78 2482.5,-161 2492.33,-157.05 2487.72,-151.78"/>
</g>
<!-- libcap&#45;ng0&#45;&gt;libc6 -->
<g id="edge40" class="edge">
<title>libcap&#45;ng0&#45;&gt;libc6</title>
<path fill="none" stroke="black" d="M2421.17,-36.1C2456.33,-64.24 2517.28,-120.5 2490.2,-153.85"/>
<polygon fill="black" stroke="black" points="2487.45,-151.63 2482.5,-161 2492.21,-156.76 2487.45,-151.63"/>
</g>
</g>
</svg>
